<?xml version="1.0" encoding="UTF-8"?>
<svg id="Layer_1" data-name="Layer 1" xmlns="http://www.w3.org/2000/svg" viewBox="0 0 544.22 544.22">
  <defs>
    <style>
      .cls-1 {
        fill: #ef2a60;
      }
    </style>
  </defs>
  <path class="cls-1" d="m272.11,0C2.1,0,0,121.83,0,272.11s2.1,272.11,272.11,272.11,272.11-121.83,272.11-272.11S542.12,0,272.11,0Zm-52.06,169.53c-1.92.3-3.84.58-5.75.89-9.98,1.61-19.5,4.44-27.58,10.85-8.09,6.42-12.55,15.08-15.02,24.86-1.13,4.48-1.78,9.09-2.67,13.63-.11.58-.35,1.13-.53,1.69-.21,0-.42,0-.62,0-.24-1.33-.49-2.67-.73-4-1.26-7.18-2.85-14.26-5.85-20.97-6-13.39-16.78-20.78-30.57-24.29-3.99-1.02-8.12-1.5-12.19-2.24-.66-.12-1.31-.33-1.96-.5,0-.21-.01-.41-.02-.62,1.6-.25,3.21-.51,4.81-.75,8.4-1.25,16.5-3.41,23.87-7.78,10.9-6.48,16.73-16.52,19.72-28.45,1.1-4.42,1.76-8.95,2.63-13.43.09-.46.23-.91.88-1.44.2.73.48,1.45.6,2.2,1.23,7.77,2.74,15.45,6.02,22.68,5.7,12.55,15.75,19.89,28.66,23.57,4.85,1.38,9.9,2.07,14.85,3.08.5.1.99.26,1.48.39,0,.21-.01.41-.02.62Zm29.18,210.26v-215.42h45.73v215.42h-45.73Zm89.81,43.66c-7.1,7.27-8.82,16.79-10.64,26.34-2.1-9.49-3.81-19.05-10.97-26.28-7.17-7.23-16.52-9.37-26.37-11.05,23.31-1.64,35.2-14.48,37.35-37.54,2.14,23.04,14.03,35.87,37.3,37.52-9.99,1.56-19.45,3.63-26.66,11Zm128.54-105.21c-11.42,1.42-22.6,3.69-33.17,8.47-17.38,7.87-28.1,21.46-33.32,39.45-2.26,7.78-3.44,15.87-5.17,23.81-.17.76-.76,1.42-1.15,2.13-.36-.74-.92-1.46-1.04-2.24-1.74-11.35-3.92-22.58-8.63-33.15-7.92-17.8-21.88-28.58-40.23-33.83-7.38-2.12-15.09-3.1-22.65-4.63-.64-.13-1.24-.5-1.85-.76.61-.37,1.18-.95,1.84-1.09,8.58-1.89,17.38-3.04,25.71-5.68,22.65-7.18,36.02-23.26,41.74-45.95,1.68-6.66,2.71-13.49,4.06-20.24.14-.71.48-1.39.72-2.08.25,0,.5,0,.75,0,.26.68.59,1.35.75,2.06,1.84,8.17,3.2,16.47,5.55,24.49,6.79,23.14,22.46,37.35,45.55,43.44,6.72,1.77,13.67,2.66,20.5,4,.62.12,1.16.61,1.74.93-.57.31-1.11.82-1.71.9Z"/>
</svg>